<?xml version="1.0" encoding="UTF-8" standalone="no"?>
<!-- Created with Inkscape (http://www.inkscape.org/) -->

<svg
   xmlns:dc="http://purl.org/dc/elements/1.1/"
   xmlns:cc="http://creativecommons.org/ns#"
   xmlns:rdf="http://www.w3.org/1999/02/22-rdf-syntax-ns#"
   xmlns:svg="http://www.w3.org/2000/svg"
   xmlns="http://www.w3.org/2000/svg"
   xmlns:sodipodi="http://sodipodi.sourceforge.net/DTD/sodipodi-0.dtd"
   xmlns:inkscape="http://www.inkscape.org/namespaces/inkscape"
   width="44"
   height="44"
   viewBox="0 0 11.641666 11.641667"
   version="1.1"
   id="svg854"
   inkscape:version="0.92.3 (2405546, 2018-03-11)"
   sodipodi:docname="Logo.svg"
   inkscape:export-filename="C:\Users\Peter\source\repos\mesa123123\Get-Setter-MVP\Get Setter\Get Setter\Assets\LogoTemplate.png"
   inkscape:export-xdpi="100.1"
   inkscape:export-ydpi="100.1">
  <defs
     id="defs848" />
  <sodipodi:namedview
     id="base"
     pagecolor="#000000"
     bordercolor="#666666"
     borderopacity="1.0"
     inkscape:pageopacity="0"
     inkscape:pageshadow="2"
     inkscape:zoom="5.6"
     inkscape:cx="18.985445"
     inkscape:cy="22.017599"
     inkscape:document-units="mm"
     inkscape:current-layer="layer1"
     showgrid="false"
     units="px"
     inkscape:window-width="1366"
     inkscape:window-height="745"
     inkscape:window-x="-8"
     inkscape:window-y="-8"
     inkscape:window-maximized="1" />
  <metadata
     id="metadata851">
    <rdf:RDF>
      <cc:Work
         rdf:about="">
        <dc:format>image/svg+xml</dc:format>
        <dc:type
           rdf:resource="http://purl.org/dc/dcmitype/StillImage" />
        <dc:title></dc:title>
      </cc:Work>
    </rdf:RDF>
  </metadata>
  <g
     inkscape:label="Layer 1"
     inkscape:groupmode="layer"
     id="layer1"
     transform="translate(0,-285.35832)">
    <g
       id="g869"
       transform="matrix(0.94302735,0,0,0.96494321,-0.01650897,9.809721)">
      <rect
         y="285.37723"
         x="-0.14174107"
         height="11.717261"
         width="12.000744"
         id="rect829"
         style="opacity:1;fill:#00000f;fill-opacity:1;stroke:#000000;stroke-width:0.366;stroke-linejoin:miter;stroke-miterlimit:4;stroke-dasharray:none;stroke-dashoffset:0;stroke-opacity:1" />
      <path
         sodipodi:nodetypes="ccccc"
         inkscape:connector-curvature="0"
         id="path10317"
         d="m 2.6575004,287.37031 0.290831,0.49988 c 0.5524161,-0.3355 1.1451836,-0.39592 1.7837639,-0.14404 l 0.1615728,-0.45752 c -0.6374477,-0.46682 -1.3747328,-0.47052 -2.2361677,0.10168 z"
         style="opacity:1;fill:#ffffff;fill-opacity:0.58823529;stroke:#ffffff;stroke-width:0.11074716;stroke-linecap:butt;stroke-linejoin:miter;stroke-miterlimit:4;stroke-dasharray:none;stroke-opacity:1" />
      <path
         sodipodi:nodetypes="ccccccccccccccccccccccc"
         inkscape:connector-curvature="0"
         id="path10325"
         d="m 5.5205706,290.76781 c 0.1852155,-0.17342 0.1130021,-0.23146 0.4529235,-0.36432 l 0.400181,-0.0678 C 6.3083988,289.28843 6.1061354,288.06194 5.0810925,287.311 l -0.1850837,0.51826 c -0.5355975,0.77695 -1.2595347,1.25827 -2.0640098,0.40525 l -0.5041072,-0.59308 c -1.0490413,0.88291 -1.1625496,2.24899 -1.2796565,3.52459 l 0.7367719,0.0508 c 1.093464,0.21445 1.320358,1.21088 1.1503984,2.40621 l -0.15511,0.5253 c 0.7713052,0.45251 1.5554528,0.42815 2.4688326,-0.55919 l -0.1421841,-0.45752 c -0.1347782,-0.53095 -0.1044637,-0.83314 1e-7,-1.36408 L 4.7837985,291.6235 c -0.2008891,0.61003 -0.1941429,0.99977 0.051703,1.60979 -0.477739,0.29014 -0.896658,0.72347 -1.6028024,0.45752 0.150611,-1.1273 0.071091,-2.69129 -1.473544,-2.94846 0.044772,-0.74374 0.3085486,-1.48412 0.814327,-2.21981 1.4346978,1.47694 2.0026544,0.20909 2.5290263,-0.45974 0.415862,0.37207 0.7217358,1.03095 0.8446141,1.96786 -0.3981993,0.21833 -0.520685,0.35973 -0.7755496,0.61849 z"
         style="opacity:1;fill:#ffffff;fill-opacity:0.58823529;stroke:#ffffff;stroke-width:0.11074716;stroke-linecap:butt;stroke-linejoin:miter;stroke-miterlimit:4;stroke-dasharray:none;stroke-opacity:1" />
      <path
         sodipodi:nodetypes="ccccc"
         inkscape:connector-curvature="0"
         id="path10329"
         d="m 1.7333038,291.55576 -0.6333656,-0.0508 c 0.1278671,0.87633 0.5665238,1.76696 1.3830635,2.50788 l 0.1421841,-0.47446 c -0.3672284,-0.56788 -0.7891145,-1.2847 -0.891882,-1.98259 z"
         style="opacity:1;fill:#ffffff;fill-opacity:0.58823529;stroke:#ffffff;stroke-width:0.11074716;stroke-linecap:butt;stroke-linejoin:miter;stroke-miterlimit:4;stroke-dasharray:none;stroke-opacity:1" />
      <path
         sodipodi:nodetypes="ccccc"
         inkscape:connector-curvature="0"
         id="path10361"
         d="m 5.2362024,292.82665 0.2326649,0.42363 c 0.3881342,-0.45752 0.4691725,-0.83032 0.6721429,-1.28783 l -0.3877747,-0.16946 c -0.1182416,0.40942 -0.2025198,0.92443 -0.5170331,1.03366 z"
         style="opacity:1;fill:#ffffff;fill-opacity:0.58823529;stroke:#ffffff;stroke-width:0.11074716;stroke-linecap:butt;stroke-linejoin:miter;stroke-miterlimit:4;stroke-dasharray:none;stroke-opacity:1" />
      <path
         sodipodi:nodetypes="ccccc"
         inkscape:connector-curvature="0"
         id="path10365"
         d="m 6.0191938,290.63115 c 0.1333937,-0.0226 0.2360011,-0.0319 0.3407713,-0.0438 0.0037,0.18424 -0.00522,0.37951 -0.037993,0.59564 l -0.3360715,-0.13556 c -0.00805,-0.13876 0.029695,-0.27751 0.033294,-0.41626 z"
         style="opacity:1;fill:#ffffff;fill-opacity:0.58823529;stroke:#ffffff;stroke-width:0.11074716;stroke-linecap:butt;stroke-linejoin:miter;stroke-miterlimit:4;stroke-dasharray:none;stroke-opacity:1" />
      <path
         sodipodi:nodetypes="ccccc"
         inkscape:connector-curvature="0"
         id="path10373"
         d="m 4.3256004,290.62837 c -0.2112037,0.18634 -0.1361274,0.33855 -0.1170607,0.49743 l 3.0344596,1.07838 c -0.1196116,-0.37921 3.965e-4,-0.42539 0.151593,-0.53834 z"
         style="opacity:1;fill:#ffffff;fill-opacity:0.58823529;stroke:#ffffff;stroke-width:0.11074716;stroke-linecap:butt;stroke-linejoin:miter;stroke-miterlimit:4;stroke-dasharray:none;stroke-opacity:1" />
      <path
         sodipodi:nodetypes="ccccc"
         inkscape:connector-curvature="0"
         id="path10377"
         d="m 9.2173565,292.19968 c -0.1091074,0.1187 -0.2379267,0.19864 -0.1809615,0.64391 l 1.344286,0.40669 c 0.09941,-0.52189 0.174782,-0.44482 0.258516,-0.57614 z"
         style="opacity:1;fill:#ffffff;fill-opacity:0.58823529;stroke:#ffffff;stroke-width:0.11074716;stroke-linecap:butt;stroke-linejoin:miter;stroke-miterlimit:4;stroke-dasharray:none;stroke-opacity:1" />
    </g>
  </g>
</svg>
